<svg xmlns="http://www.w3.org/2000/svg" width="46" height="45.999" viewBox="0 0 46 45.999">
    <g id="Main_Profile">
        <g id="구성_요소_38_1" data-name="구성 요소 38 – 1">
            <circle id="타원_2" cx="20" cy="20" r="20" fill="#fff" data-name="타원 2" transform="translate(3 3)"/>
            <g id="noun_profile_2367782">
                <path id="패스_1130" fill="#979595" d="M28 5a23 23 0 0 0 0 46 22.74 22.74 0 0 0 14.418-5.082A23 23 0 0 0 28 5zm0 8.054a7.473 7.473 0 1 1-7.473 7.473A7.473 7.473 0 0 1 28 13.054zM42.736 41.42a19.933 19.933 0 0 1-29.474 0c-.329-.361-.64-.735-.94-1.117C13.546 35.236 20.1 31.362 28 31.362s14.452 3.873 15.677 8.94c-.301.382-.611.756-.941 1.118z" data-name="패스 1130" transform="translate(-5 -5)"/>
            </g>
        </g>
    </g>
</svg>
