<svg xmlns="http://www.w3.org/2000/svg" id="구성_요소_87_1" width="24" height="24.003" data-name="구성 요소 87 – 1" viewBox="0 0 24 24.003">
    <path id="패스_1251" fill="#fff" d="M4946.54 8235.764a9.305 9.305 0 0 0 0-3.265l2.473-1.416a.358.358 0 0 0 .132-.492l-2.88-4.92v-.012a.356.356 0 0 0-.492-.121l-2.484 1.417a9.52 9.52 0 0 0-2.856-1.633v-2.832a.361.361 0 0 0-.36-.36h-5.749a.354.354 0 0 0-.36.36v2.832a9.235 9.235 0 0 0-2.856 1.633l-2.485-1.417a.365.365 0 0 0-.276-.035.359.359 0 0 0-.228.168l-2.88 4.92a.367.367 0 0 0 .132.492l2.472 1.416a9.352 9.352 0 0 0 0 3.265l-2.472 1.416a.367.367 0 0 0-.132.492l2.88 4.92a.371.371 0 0 0 .5.133l2.485-1.416a9.371 9.371 0 0 0 2.856 1.631v2.833a.361.361 0 0 0 .36.36h5.749a.369.369 0 0 0 .36-.36v-2.833a9.514 9.514 0 0 0 2.856-1.631l2.484 1.416a.358.358 0 0 0 .492-.133l2.88-4.92a.365.365 0 0 0-.132-.492zm-4.8-1.633a4.548 4.548 0 1 1-1.332-3.216 4.546 4.546 0 0 1 1.331 3.216z" data-name="패스 1251" transform="translate(-4925.192 -8222.13)"/>
</svg>
